<?xml version="1.0" encoding="utf-8" standalone="yes"?>
<?xml-stylesheet href="SVGStyle.css" type="text/css"?>
<svg xmlns="http://www.w3.org/2000/svg" version="1.2" baseProfile="tiny" xml:space="preserve" style="shape-rendering:geometricPrecision; fill-rule:evenodd;" width="2.45mm" height="4.6mm" viewBox="-1.63 -2.3 2.0 4.6">
  <title>Curved Path Symbol</title>
  <desc>Symbol with two curved paths approximated using small straight-line segments.</desc>
  <metadata>
    <iho:S100SVG xmlns:iho="http://www.iho.int/SVGMetadata">
      <iho:Description publisher="" creationDate="" source="" format="" version="" />
    </iho:S100SVG>
  </metadata>
  <circle class="pivotPoint layout" fill="none" cx="0" cy="0" r="0.4" />
  <rect class="symbolBox layout" fill="none" x="-1.83" y="2.11" height="4.41" width="2.21" />
  <rect class="svgBox layout" fill="none" x="-1.83" y="-2.3" height="4.41" width="2.21" />
  <path d=" M 0.33,-2.3 L -0.09,-2.23 L -0.65,-2 L -1.1,-1.7 L -1.44,-1.35 L -1.66,-0.97 L -1.8,-0.51 L -1.83,-0.1 L -1.78,0.45 L -1.58,0.95 L -1.31,1.33 L -0.98,1.66 L -0.65,1.86 L -0.18,2.07 L 0.16,2.1 L 0.37,2.1" class="sl f0 sCHBLK" style="stroke-width:0.32;stroke-opacity:1;" />
  <path d=" M 0.33,-2.3 L 0.11,-1.83 L -0.08,-1.31 L -0.19,-0.81 L -0.24,-0.33 L -0.24,0.17 L -0.19,0.62 L -0.06,1.18 L 0.11,1.58 L 0.38,2.11" class="sl f0 sCHBLK" style="stroke-width:0.32;stroke-opacity:1;" />
</svg>